<?xml version="1.0" encoding="UTF-8" standalone="no"?>
<!DOCTYPE svg PUBLIC "-//W3C//DTD SVG 1.1//EN"
 "http://www.w3.org/Graphics/SVG/1.1/DTD/svg11.dtd">
<!-- Generated by graphviz version 12.2.0 (20241103.1931)
 -->
<!-- Title: DependenceGraph Pages: 1 -->
<svg width="1384pt" height="1018pt"
 viewBox="0.00 0.00 1383.66 1017.50" xmlns="http://www.w3.org/2000/svg" xmlns:xlink="http://www.w3.org/1999/xlink">
<g id="graph0" class="graph" transform="scale(1 1) rotate(0) translate(4 1013.5)">
<title>DependenceGraph</title>
<polygon fill="white" stroke="none" points="-4,4 -4,-1013.5 1379.66,-1013.5 1379.66,4 -4,4"/>
<!-- 1 -->
<g id="node1" class="node">
<title>1</title>
<ellipse fill="none" stroke="black" cx="805.01" cy="-18" rx="70.8" ry="18"/>
<text text-anchor="middle" x="805.01" y="-12.95" font-family="Times New Roman,serif" font-size="14.00">1: loadI 4 =&gt; r3</text>
</g>
<!-- 2 -->
<g id="node2" class="node">
<title>2</title>
<ellipse fill="none" stroke="black" cx="280.01" cy="-18" rx="89.23" ry="18"/>
<text text-anchor="middle" x="280.01" y="-12.95" font-family="Times New Roman,serif" font-size="14.00">2: loadI 2000 =&gt; r20</text>
</g>
<!-- 3 -->
<g id="node3" class="node">
<title>3</title>
<ellipse fill="none" stroke="black" cx="482.01" cy="-106.5" rx="90.25" ry="18"/>
<text text-anchor="middle" x="482.01" y="-101.45" font-family="Times New Roman,serif" font-size="14.00">3: add r20, r3 =&gt; r17</text>
</g>
<!-- 3&#45;&gt;1 -->
<g id="edge2" class="edge">
<title>3&#45;&gt;1</title>
<path fill="none" stroke="black" d="M505.88,-88.71C523.54,-77.12 548.62,-62.35 572.76,-54 621.7,-37.08 679.24,-28.33 724.8,-23.82"/>
<polygon fill="black" stroke="black" points="724.97,-27.31 734.6,-22.9 724.32,-20.35 724.97,-27.31"/>
<text text-anchor="middle" x="594.89" y="-57.2" font-family="Times New Roman,serif" font-size="14.00">Data, r3</text>
</g>
<!-- 3&#45;&gt;2 -->
<g id="edge1" class="edge">
<title>3&#45;&gt;2</title>
<path fill="none" stroke="black" d="M444.96,-89.63C411.79,-75.43 362.98,-54.53 327.06,-39.15"/>
<polygon fill="black" stroke="black" points="328.79,-36.08 318.22,-35.36 326.03,-42.51 328.79,-36.08"/>
<text text-anchor="middle" x="424.61" y="-57.2" font-family="Times New Roman,serif" font-size="14.00">Data, r20</text>
</g>
<!-- 4 -->
<g id="node4" class="node">
<title>4</title>
<ellipse fill="none" stroke="black" cx="80.01" cy="-549" rx="80.01" ry="18"/>
<text text-anchor="middle" x="80.01" y="-543.95" font-family="Times New Roman,serif" font-size="14.00">4: load r20 =&gt; r18</text>
</g>
<!-- 4&#45;&gt;2 -->
<g id="edge3" class="edge">
<title>4&#45;&gt;2</title>
<path fill="none" stroke="black" d="M139,-536.57C178.39,-525.12 223.01,-502.99 223.01,-461.5 223.01,-461.5 223.01,-461.5 223.01,-105.5 223.01,-81.98 237.89,-59.92 252.44,-43.96"/>
<polygon fill="black" stroke="black" points="254.9,-46.45 259.34,-36.84 249.87,-41.58 254.9,-46.45"/>
<text text-anchor="middle" x="248.51" y="-278.45" font-family="Times New Roman,serif" font-size="14.00">Data, r20</text>
</g>
<!-- 5 -->
<g id="node5" class="node">
<title>5</title>
<ellipse fill="none" stroke="black" cx="264.01" cy="-549" rx="80.01" ry="18"/>
<text text-anchor="middle" x="264.01" y="-543.95" font-family="Times New Roman,serif" font-size="14.00">5: load r17 =&gt; r19</text>
</g>
<!-- 5&#45;&gt;3 -->
<g id="edge4" class="edge">
<title>5&#45;&gt;3</title>
<path fill="none" stroke="black" d="M340.45,-543.3C393.99,-535.36 456.01,-514.69 456.01,-461.5 456.01,-461.5 456.01,-461.5 456.01,-194 456.01,-173.55 462.76,-151.48 469.38,-134.76"/>
<polygon fill="black" stroke="black" points="472.41,-136.58 473.06,-126 465.96,-133.87 472.41,-136.58"/>
<text text-anchor="middle" x="481.51" y="-322.7" font-family="Times New Roman,serif" font-size="14.00">Data, r17</text>
</g>
<!-- 6 -->
<g id="node6" class="node">
<title>6</title>
<ellipse fill="none" stroke="black" cx="264.01" cy="-637.5" rx="90.25" ry="18"/>
<text text-anchor="middle" x="264.01" y="-632.45" font-family="Times New Roman,serif" font-size="14.00">6: add r18, r19 =&gt; r7</text>
</g>
<!-- 6&#45;&gt;4 -->
<g id="edge5" class="edge">
<title>6&#45;&gt;4</title>
<path fill="none" stroke="black" d="M229.83,-620.43C199.83,-606.33 156.01,-585.73 123.51,-570.45"/>
<polygon fill="black" stroke="black" points="125.3,-567.42 114.76,-566.33 122.32,-573.76 125.3,-567.42"/>
<text text-anchor="middle" x="213.99" y="-588.2" font-family="Times New Roman,serif" font-size="14.00">Data, r18</text>
</g>
<!-- 6&#45;&gt;5 -->
<g id="edge6" class="edge">
<title>6&#45;&gt;5</title>
<path fill="none" stroke="black" d="M264.01,-619.41C264.01,-607.76 264.01,-592.05 264.01,-578.52"/>
<polygon fill="black" stroke="black" points="267.51,-578.86 264.01,-568.86 260.51,-578.86 267.51,-578.86"/>
<text text-anchor="middle" x="289.51" y="-588.2" font-family="Times New Roman,serif" font-size="14.00">Data, r19</text>
</g>
<!-- 7 -->
<g id="node7" class="node">
<title>7</title>
<ellipse fill="none" stroke="black" cx="602.01" cy="-195" rx="90.25" ry="18"/>
<text text-anchor="middle" x="602.01" y="-189.95" font-family="Times New Roman,serif" font-size="14.00">7: add r17, r3 =&gt; r16</text>
</g>
<!-- 7&#45;&gt;1 -->
<g id="edge8" class="edge">
<title>7&#45;&gt;1</title>
<path fill="none" stroke="black" d="M616.46,-176.76C634.88,-155.19 668.13,-117.55 699.76,-88.5 718.13,-71.63 723.31,-67.91 744.01,-54 750.91,-49.37 758.45,-44.72 765.81,-40.4"/>
<polygon fill="black" stroke="black" points="767.41,-43.52 774.33,-35.49 763.92,-37.45 767.41,-43.52"/>
<text text-anchor="middle" x="721.89" y="-101.45" font-family="Times New Roman,serif" font-size="14.00">Data, r3</text>
</g>
<!-- 7&#45;&gt;3 -->
<g id="edge7" class="edge">
<title>7&#45;&gt;3</title>
<path fill="none" stroke="black" d="M578.88,-177.32C560.53,-164.1 534.68,-145.47 514.3,-130.77"/>
<polygon fill="black" stroke="black" points="516.47,-128.02 506.31,-125.01 512.37,-133.7 516.47,-128.02"/>
<text text-anchor="middle" x="578.26" y="-145.7" font-family="Times New Roman,serif" font-size="14.00">Data, r17</text>
</g>
<!-- 8 -->
<g id="node8" class="node">
<title>8</title>
<ellipse fill="none" stroke="black" cx="876.01" cy="-283.5" rx="90.25" ry="18"/>
<text text-anchor="middle" x="876.01" y="-278.45" font-family="Times New Roman,serif" font-size="14.00">8: add r16, r3 =&gt; r15</text>
</g>
<!-- 8&#45;&gt;1 -->
<g id="edge10" class="edge">
<title>8&#45;&gt;1</title>
<path fill="none" stroke="black" d="M871.35,-265.21C859.37,-220.73 827.38,-102 812.64,-47.3"/>
<polygon fill="black" stroke="black" points="816.06,-46.56 810.08,-37.81 809.3,-48.38 816.06,-46.56"/>
<text text-anchor="middle" x="864.28" y="-145.7" font-family="Times New Roman,serif" font-size="14.00">Data, r3</text>
</g>
<!-- 8&#45;&gt;7 -->
<g id="edge9" class="edge">
<title>8&#45;&gt;7</title>
<path fill="none" stroke="black" d="M829.22,-267.73C782.23,-252.89 709.75,-230.01 659.33,-214.1"/>
<polygon fill="black" stroke="black" points="660.64,-210.84 650.05,-211.17 658.54,-217.51 660.64,-210.84"/>
<text text-anchor="middle" x="789.05" y="-234.2" font-family="Times New Roman,serif" font-size="14.00">Data, r16</text>
</g>
<!-- 9 -->
<g id="node9" class="node">
<title>9</title>
<ellipse fill="none" stroke="black" cx="543.01" cy="-549" rx="80.01" ry="18"/>
<text text-anchor="middle" x="543.01" y="-543.95" font-family="Times New Roman,serif" font-size="14.00">9: load r16 =&gt; r11</text>
</g>
<!-- 9&#45;&gt;7 -->
<g id="edge11" class="edge">
<title>9&#45;&gt;7</title>
<path fill="none" stroke="black" d="M558,-531.12C571.09,-514.59 588.01,-488.08 588.01,-461.5 588.01,-461.5 588.01,-461.5 588.01,-282.5 588.01,-262.85 591.58,-241 595.11,-224.18"/>
<polygon fill="black" stroke="black" points="598.42,-225.43 597.18,-214.9 591.59,-223.9 598.42,-225.43"/>
<text text-anchor="middle" x="613.51" y="-366.95" font-family="Times New Roman,serif" font-size="14.00">Data, r16</text>
</g>
<!-- 10 -->
<g id="node10" class="node">
<title>10</title>
<ellipse fill="none" stroke="black" cx="1102.01" cy="-549" rx="84.62" ry="18"/>
<text text-anchor="middle" x="1102.01" y="-543.95" font-family="Times New Roman,serif" font-size="14.00">10: load r15 =&gt; r10</text>
</g>
<!-- 10&#45;&gt;8 -->
<g id="edge12" class="edge">
<title>10&#45;&gt;8</title>
<path fill="none" stroke="black" d="M1088.94,-530.78C1059.14,-491.86 983.36,-394.69 913.01,-319.5 909.91,-316.18 906.56,-312.78 903.19,-309.47"/>
<polygon fill="black" stroke="black" points="905.62,-306.96 895.98,-302.56 900.78,-312.01 905.62,-306.96"/>
<text text-anchor="middle" x="1028.82" y="-411.2" font-family="Times New Roman,serif" font-size="14.00">Data, r15</text>
</g>
<!-- 11 -->
<g id="node11" class="node">
<title>11</title>
<ellipse fill="none" stroke="black" cx="543.01" cy="-637.5" rx="94.86" ry="18"/>
<text text-anchor="middle" x="543.01" y="-632.45" font-family="Times New Roman,serif" font-size="14.00">11: add r11, r10 =&gt; r6</text>
</g>
<!-- 11&#45;&gt;9 -->
<g id="edge13" class="edge">
<title>11&#45;&gt;9</title>
<path fill="none" stroke="black" d="M543.01,-619.41C543.01,-607.76 543.01,-592.05 543.01,-578.52"/>
<polygon fill="black" stroke="black" points="546.51,-578.86 543.01,-568.86 539.51,-578.86 546.51,-578.86"/>
<text text-anchor="middle" x="568.51" y="-588.2" font-family="Times New Roman,serif" font-size="14.00">Data, r11</text>
</g>
<!-- 11&#45;&gt;10 -->
<g id="edge14" class="edge">
<title>11&#45;&gt;10</title>
<path fill="none" stroke="black" d="M611.45,-624.64C623.29,-622.78 635.49,-620.99 647.01,-619.5 731.14,-608.65 759.04,-634.9 837.01,-601.5 847.29,-597.1 845.78,-589.52 856.01,-585 918.23,-557.48 940.73,-577.06 1008.01,-567 1014.9,-565.97 1022.06,-564.82 1029.21,-563.62"/>
<polygon fill="black" stroke="black" points="1029.66,-567.09 1038.92,-561.95 1028.47,-560.19 1029.66,-567.09"/>
<text text-anchor="middle" x="881.51" y="-588.2" font-family="Times New Roman,serif" font-size="14.00">Data, r10</text>
</g>
<!-- 12 -->
<g id="node12" class="node">
<title>12</title>
<ellipse fill="none" stroke="black" cx="832.01" cy="-372" rx="94.86" ry="18"/>
<text text-anchor="middle" x="832.01" y="-366.95" font-family="Times New Roman,serif" font-size="14.00">12: add r15, r3 =&gt; r14</text>
</g>
<!-- 12&#45;&gt;1 -->
<g id="edge16" class="edge">
<title>12&#45;&gt;1</title>
<path fill="none" stroke="black" d="M804.88,-354.34C783.76,-339.07 758.01,-314.34 758.01,-284.5 758.01,-284.5 758.01,-284.5 758.01,-105.5 758.01,-83.07 770.37,-60.9 782.41,-44.63"/>
<polygon fill="black" stroke="black" points="785.01,-46.98 788.43,-36.96 779.5,-42.66 785.01,-46.98"/>
<text text-anchor="middle" x="780.14" y="-189.95" font-family="Times New Roman,serif" font-size="14.00">Data, r3</text>
</g>
<!-- 12&#45;&gt;8 -->
<g id="edge15" class="edge">
<title>12&#45;&gt;8</title>
<path fill="none" stroke="black" d="M840.71,-353.91C846.81,-341.9 855.11,-325.59 862.13,-311.8"/>
<polygon fill="black" stroke="black" points="865.09,-313.7 866.5,-303.2 858.85,-310.53 865.09,-313.7"/>
<text text-anchor="middle" x="883.45" y="-322.7" font-family="Times New Roman,serif" font-size="14.00">Data, r15</text>
</g>
<!-- 13 -->
<g id="node13" class="node">
<title>13</title>
<ellipse fill="none" stroke="black" cx="912.01" cy="-460.5" rx="90.25" ry="18"/>
<text text-anchor="middle" x="912.01" y="-455.45" font-family="Times New Roman,serif" font-size="14.00">13: add r14, r3 =&gt; r2</text>
</g>
<!-- 13&#45;&gt;1 -->
<g id="edge18" class="edge">
<title>13&#45;&gt;1</title>
<path fill="none" stroke="black" d="M943.29,-443.44C967.17,-428.7 996.01,-404.4 996.01,-373 996.01,-373 996.01,-373 996.01,-105.5 996.01,-53.87 937.38,-32.9 885.08,-24.46"/>
<polygon fill="black" stroke="black" points="885.6,-21 875.2,-23.02 884.59,-27.92 885.6,-21"/>
<text text-anchor="middle" x="1018.14" y="-234.2" font-family="Times New Roman,serif" font-size="14.00">Data, r3</text>
</g>
<!-- 13&#45;&gt;12 -->
<g id="edge17" class="edge">
<title>13&#45;&gt;12</title>
<path fill="none" stroke="black" d="M896.21,-442.41C884.59,-429.85 868.62,-412.58 855.51,-398.41"/>
<polygon fill="black" stroke="black" points="858.17,-396.13 848.81,-391.17 853.03,-400.88 858.17,-396.13"/>
<text text-anchor="middle" x="904.68" y="-411.2" font-family="Times New Roman,serif" font-size="14.00">Data, r14</text>
</g>
<!-- 14 -->
<g id="node14" class="node">
<title>14</title>
<ellipse fill="none" stroke="black" cx="726.01" cy="-549" rx="84.62" ry="18"/>
<text text-anchor="middle" x="726.01" y="-543.95" font-family="Times New Roman,serif" font-size="14.00">14: load r14 =&gt; r12</text>
</g>
<!-- 14&#45;&gt;12 -->
<g id="edge19" class="edge">
<title>14&#45;&gt;12</title>
<path fill="none" stroke="black" d="M729.31,-530.87C734.06,-509.09 744.26,-470.89 762.01,-442.5 772.59,-425.59 788.04,-409.68 801.73,-397.36"/>
<polygon fill="black" stroke="black" points="804.02,-400 809.26,-390.8 799.42,-394.72 804.02,-400"/>
<text text-anchor="middle" x="787.51" y="-455.45" font-family="Times New Roman,serif" font-size="14.00">Data, r14</text>
</g>
<!-- 15 -->
<g id="node15" class="node">
<title>15</title>
<ellipse fill="none" stroke="black" cx="919.01" cy="-549" rx="80.01" ry="18"/>
<text text-anchor="middle" x="919.01" y="-543.95" font-family="Times New Roman,serif" font-size="14.00">15: load r2 =&gt; r13</text>
</g>
<!-- 15&#45;&gt;13 -->
<g id="edge20" class="edge">
<title>15&#45;&gt;13</title>
<path fill="none" stroke="black" d="M912.91,-530.77C911.21,-525.18 909.61,-518.89 908.76,-513 907.71,-505.64 907.68,-497.64 908.12,-490.19"/>
<polygon fill="black" stroke="black" points="911.6,-490.52 909.03,-480.24 904.63,-489.88 911.6,-490.52"/>
<text text-anchor="middle" x="930.89" y="-499.7" font-family="Times New Roman,serif" font-size="14.00">Data, r2</text>
</g>
<!-- 16 -->
<g id="node16" class="node">
<title>16</title>
<ellipse fill="none" stroke="black" cx="755.01" cy="-637.5" rx="98.95" ry="18"/>
<text text-anchor="middle" x="755.01" y="-632.45" font-family="Times New Roman,serif" font-size="14.00">16: mult r12, r13 =&gt; r8</text>
</g>
<!-- 16&#45;&gt;14 -->
<g id="edge21" class="edge">
<title>16&#45;&gt;14</title>
<path fill="none" stroke="black" d="M727.12,-619.85C721.03,-614.78 715.4,-608.63 712.01,-601.5 708.5,-594.11 709.08,-585.68 711.34,-577.82"/>
<polygon fill="black" stroke="black" points="714.54,-579.24 714.87,-568.65 708.01,-576.73 714.54,-579.24"/>
<text text-anchor="middle" x="737.51" y="-588.2" font-family="Times New Roman,serif" font-size="14.00">Data, r12</text>
</g>
<!-- 16&#45;&gt;15 -->
<g id="edge22" class="edge">
<title>16&#45;&gt;15</title>
<path fill="none" stroke="black" d="M825.39,-624.45C863.79,-617.22 904.78,-608.16 911.01,-601.5 916.73,-595.39 919.36,-586.98 920.39,-578.73"/>
<polygon fill="black" stroke="black" points="923.87,-579.08 920.86,-568.93 916.88,-578.75 923.87,-579.08"/>
<text text-anchor="middle" x="944.61" y="-588.2" font-family="Times New Roman,serif" font-size="14.00">Data, r13</text>
</g>
<!-- 17 -->
<g id="node17" class="node">
<title>17</title>
<ellipse fill="none" stroke="black" cx="971.01" cy="-637.5" rx="98.95" ry="18"/>
<text text-anchor="middle" x="971.01" y="-632.45" font-family="Times New Roman,serif" font-size="14.00">17: mult r10, r11 =&gt; r9</text>
</g>
<!-- 17&#45;&gt;9 -->
<g id="edge24" class="edge">
<title>17&#45;&gt;9</title>
<path fill="none" stroke="black" d="M899.97,-624.58C852.43,-616.34 796.68,-606.07 786.01,-601.5 774.45,-596.55 774.7,-589.66 763.01,-585 708.42,-563.23 690.01,-576.52 632.01,-567 625.65,-565.96 619.04,-564.81 612.43,-563.62"/>
<polygon fill="black" stroke="black" points="613.3,-560.22 602.83,-561.87 612.04,-567.11 613.3,-560.22"/>
<text text-anchor="middle" x="811.51" y="-588.2" font-family="Times New Roman,serif" font-size="14.00">Data, r11</text>
</g>
<!-- 17&#45;&gt;10 -->
<g id="edge23" class="edge">
<title>17&#45;&gt;10</title>
<path fill="none" stroke="black" d="M996.27,-619.82C1016.48,-606.48 1045.03,-587.63 1067.37,-572.88"/>
<polygon fill="black" stroke="black" points="1069.15,-575.89 1075.57,-567.46 1065.3,-570.05 1069.15,-575.89"/>
<text text-anchor="middle" x="1073.75" y="-588.2" font-family="Times New Roman,serif" font-size="14.00">Data, r10</text>
</g>
<!-- 18 -->
<g id="node18" class="node">
<title>18</title>
<ellipse fill="none" stroke="black" cx="781.01" cy="-726" rx="85.64" ry="18"/>
<text text-anchor="middle" x="781.01" y="-720.95" font-family="Times New Roman,serif" font-size="14.00">18: add r8, r9 =&gt; r4</text>
</g>
<!-- 18&#45;&gt;16 -->
<g id="edge25" class="edge">
<title>18&#45;&gt;16</title>
<path fill="none" stroke="black" d="M775.88,-707.91C772.34,-696.14 767.56,-680.23 763.46,-666.61"/>
<polygon fill="black" stroke="black" points="766.89,-665.87 760.66,-657.3 760.19,-667.88 766.89,-665.87"/>
<text text-anchor="middle" x="792.47" y="-676.7" font-family="Times New Roman,serif" font-size="14.00">Data, r8</text>
</g>
<!-- 18&#45;&gt;17 -->
<g id="edge26" class="edge">
<title>18&#45;&gt;17</title>
<path fill="none" stroke="black" d="M815.86,-709.13C846.64,-695.12 891.72,-674.6 925.37,-659.28"/>
<polygon fill="black" stroke="black" points="926.39,-662.66 934.04,-655.33 923.49,-656.29 926.39,-662.66"/>
<text text-anchor="middle" x="915.16" y="-676.7" font-family="Times New Roman,serif" font-size="14.00">Data, r9</text>
</g>
<!-- 19 -->
<g id="node19" class="node">
<title>19</title>
<ellipse fill="none" stroke="black" cx="592.01" cy="-726" rx="85.64" ry="18"/>
<text text-anchor="middle" x="592.01" y="-720.95" font-family="Times New Roman,serif" font-size="14.00">19: add r6, r7 =&gt; r5</text>
</g>
<!-- 19&#45;&gt;6 -->
<g id="edge28" class="edge">
<title>19&#45;&gt;6</title>
<path fill="none" stroke="black" d="M540.04,-711.29C482.53,-696.13 389.81,-671.67 327.9,-655.35"/>
<polygon fill="black" stroke="black" points="329.13,-652.05 318.56,-652.89 327.34,-658.82 329.13,-652.05"/>
<text text-anchor="middle" x="479.52" y="-676.7" font-family="Times New Roman,serif" font-size="14.00">Data, r7</text>
</g>
<!-- 19&#45;&gt;11 -->
<g id="edge27" class="edge">
<title>19&#45;&gt;11</title>
<path fill="none" stroke="black" d="M582.33,-707.91C575.53,-695.9 566.29,-679.59 558.47,-665.8"/>
<polygon fill="black" stroke="black" points="561.56,-664.14 553.59,-657.17 555.47,-667.59 561.56,-664.14"/>
<text text-anchor="middle" x="594.03" y="-676.7" font-family="Times New Roman,serif" font-size="14.00">Data, r6</text>
</g>
<!-- 20 -->
<g id="node20" class="node">
<title>20</title>
<ellipse fill="none" stroke="black" cx="592.01" cy="-814.5" rx="85.64" ry="18"/>
<text text-anchor="middle" x="592.01" y="-809.45" font-family="Times New Roman,serif" font-size="14.00">20: add r4, r5 =&gt; r0</text>
</g>
<!-- 20&#45;&gt;18 -->
<g id="edge29" class="edge">
<title>20&#45;&gt;18</title>
<path fill="none" stroke="black" d="M626.68,-797.63C657.35,-783.6 702.32,-763.02 735.81,-747.69"/>
<polygon fill="black" stroke="black" points="737.23,-750.89 744.87,-743.54 734.32,-744.52 737.23,-750.89"/>
<text text-anchor="middle" x="725.57" y="-765.2" font-family="Times New Roman,serif" font-size="14.00">Data, r4</text>
</g>
<!-- 20&#45;&gt;19 -->
<g id="edge30" class="edge">
<title>20&#45;&gt;19</title>
<path fill="none" stroke="black" d="M592.01,-796.41C592.01,-784.76 592.01,-769.05 592.01,-755.52"/>
<polygon fill="black" stroke="black" points="595.51,-755.86 592.01,-745.86 588.51,-755.86 595.51,-755.86"/>
<text text-anchor="middle" x="614.14" y="-765.2" font-family="Times New Roman,serif" font-size="14.00">Data, r5</text>
</g>
<!-- 21 -->
<g id="node21" class="node">
<title>21</title>
<ellipse fill="none" stroke="black" cx="1290.01" cy="-549" rx="85.64" ry="18"/>
<text text-anchor="middle" x="1290.01" y="-543.95" font-family="Times New Roman,serif" font-size="14.00">21: add r2, r3 =&gt; r1</text>
</g>
<!-- 21&#45;&gt;1 -->
<g id="edge32" class="edge">
<title>21&#45;&gt;1</title>
<path fill="none" stroke="black" d="M1258.36,-532.03C1234.2,-517.35 1205.01,-493.08 1205.01,-461.5 1205.01,-461.5 1205.01,-461.5 1205.01,-105.5 1205.01,-41.04 1004.04,-24.5 887.01,-20.33"/>
<polygon fill="black" stroke="black" points="887.23,-16.84 877.12,-20.01 887,-23.84 887.23,-16.84"/>
<text text-anchor="middle" x="1227.14" y="-278.45" font-family="Times New Roman,serif" font-size="14.00">Data, r3</text>
</g>
<!-- 21&#45;&gt;13 -->
<g id="edge31" class="edge">
<title>21&#45;&gt;13</title>
<path fill="none" stroke="black" d="M1233.83,-535.14C1166.34,-519.7 1053.16,-493.8 980.59,-477.19"/>
<polygon fill="black" stroke="black" points="981.75,-473.87 971.22,-475.05 980.19,-480.69 981.75,-473.87"/>
<text text-anchor="middle" x="1156.99" y="-499.7" font-family="Times New Roman,serif" font-size="14.00">Data, r2</text>
</g>
<!-- 22 -->
<g id="node22" class="node">
<title>22</title>
<ellipse fill="none" stroke="black" cx="471.01" cy="-903" rx="77.45" ry="18"/>
<text text-anchor="middle" x="471.01" y="-897.95" font-family="Times New Roman,serif" font-size="14.00">22: store r0 =&gt; r1</text>
</g>
<!-- 22&#45;&gt;4 -->
<g id="edge35" class="edge">
<title>22&#45;&gt;4</title>
<path fill="none" stroke="black" d="M393.32,-902C269.7,-899.88 42.01,-886.35 42.01,-815.5 42.01,-815.5 42.01,-815.5 42.01,-636.5 42.01,-615.17 51.81,-593.2 61.46,-576.73"/>
<polygon fill="black" stroke="black" points="64.25,-578.88 66.56,-568.53 58.31,-575.18 64.25,-578.88"/>
<text text-anchor="middle" x="76.14" y="-720.95" font-family="Times New Roman,serif" font-size="14.00">Serialization</text>
</g>
<!-- 22&#45;&gt;5 -->
<g id="edge36" class="edge">
<title>22&#45;&gt;5</title>
<path fill="none" stroke="black" d="M397.27,-897.13C301.38,-888.74 146.01,-867.17 146.01,-815.5 146.01,-815.5 146.01,-815.5 146.01,-636.5 146.01,-603.55 176.3,-581.79 206.19,-568.33"/>
<polygon fill="black" stroke="black" points="207.44,-571.6 215.3,-564.5 204.73,-565.15 207.44,-571.6"/>
<text text-anchor="middle" x="180.14" y="-720.95" font-family="Times New Roman,serif" font-size="14.00">Serialization</text>
</g>
<!-- 22&#45;&gt;9 -->
<g id="edge37" class="edge">
<title>22&#45;&gt;9</title>
<path fill="none" stroke="black" d="M434.73,-886.73C424.71,-881.43 414.32,-874.82 406.01,-867 348.93,-813.3 307.93,-783.27 329.76,-708 337.46,-681.47 348.43,-678.96 363.01,-655.5 382.39,-624.33 376.5,-606.82 406.01,-585 421.93,-573.23 441.41,-565.41 460.63,-560.21"/>
<polygon fill="black" stroke="black" points="461.23,-563.66 470.1,-557.87 459.55,-556.87 461.23,-563.66"/>
<text text-anchor="middle" x="363.89" y="-720.95" font-family="Times New Roman,serif" font-size="14.00">Serialization</text>
</g>
<!-- 22&#45;&gt;10 -->
<g id="edge38" class="edge">
<title>22&#45;&gt;10</title>
<path fill="none" stroke="black" d="M548.3,-900.67C734,-896.46 1190.01,-879.58 1190.01,-815.5 1190.01,-815.5 1190.01,-815.5 1190.01,-636.5 1190.01,-608.57 1167.19,-586.65 1144.79,-571.87"/>
<polygon fill="black" stroke="black" points="1146.91,-569.07 1136.57,-566.77 1143.22,-575.02 1146.91,-569.07"/>
<text text-anchor="middle" x="1224.14" y="-720.95" font-family="Times New Roman,serif" font-size="14.00">Serialization</text>
</g>
<!-- 22&#45;&gt;14 -->
<g id="edge39" class="edge">
<title>22&#45;&gt;14</title>
<path fill="none" stroke="black" d="M453.75,-885.16C438.95,-868.87 420.01,-842.7 420.01,-815.5 420.01,-815.5 420.01,-815.5 420.01,-636.5 420.01,-625.17 429.24,-625.24 439.01,-619.5 479.55,-595.69 493.56,-597.02 539.01,-585 544.73,-583.49 602.54,-572.72 652.39,-563.52"/>
<polygon fill="black" stroke="black" points="652.85,-567 662.05,-561.74 651.58,-560.11 652.85,-567"/>
<text text-anchor="middle" x="454.14" y="-720.95" font-family="Times New Roman,serif" font-size="14.00">Serialization</text>
</g>
<!-- 22&#45;&gt;15 -->
<g id="edge40" class="edge">
<title>22&#45;&gt;15</title>
<path fill="none" stroke="black" d="M545.61,-897.77C680.27,-885.59 960.93,-838.38 1079.01,-655.5 1107.31,-611.67 1040.92,-581.95 985.22,-565.5"/>
<polygon fill="black" stroke="black" points="986.28,-562.17 975.71,-562.8 984.37,-568.9 986.28,-562.17"/>
<text text-anchor="middle" x="1068.54" y="-720.95" font-family="Times New Roman,serif" font-size="14.00">Serialization</text>
</g>
<!-- 22&#45;&gt;20 -->
<g id="edge33" class="edge">
<title>22&#45;&gt;20</title>
<path fill="none" stroke="black" d="M494.06,-885.53C512.53,-872.32 538.67,-853.63 559.31,-838.88"/>
<polygon fill="black" stroke="black" points="561.31,-841.75 567.41,-833.09 557.24,-836.06 561.31,-841.75"/>
<text text-anchor="middle" x="564.48" y="-853.7" font-family="Times New Roman,serif" font-size="14.00">Data, r0</text>
</g>
<!-- 22&#45;&gt;21 -->
<g id="edge34" class="edge">
<title>22&#45;&gt;21</title>
<path fill="none" stroke="black" d="M548.81,-901.88C753.96,-900.56 1294.01,-889.98 1294.01,-815.5 1294.01,-815.5 1294.01,-815.5 1294.01,-636.5 1294.01,-617.14 1293,-595.38 1292,-578.52"/>
<polygon fill="black" stroke="black" points="1295.5,-578.49 1291.37,-568.73 1288.51,-578.93 1295.5,-578.49"/>
<text text-anchor="middle" x="1316.14" y="-720.95" font-family="Times New Roman,serif" font-size="14.00">Data, r1</text>
</g>
<!-- 23 -->
<g id="node23" class="node">
<title>23</title>
<ellipse fill="none" stroke="black" cx="471.01" cy="-991.5" rx="69.78" ry="18"/>
<text text-anchor="middle" x="471.01" y="-986.45" font-family="Times New Roman,serif" font-size="14.00">23: output 2024</text>
</g>
<!-- 23&#45;&gt;22 -->
<g id="edge41" class="edge">
<title>23&#45;&gt;22</title>
<path fill="none" stroke="black" d="M471.01,-973.41C471.01,-961.76 471.01,-946.05 471.01,-932.52"/>
<polygon fill="black" stroke="black" points="474.51,-932.86 471.01,-922.86 467.51,-932.86 474.51,-932.86"/>
<text text-anchor="middle" x="493.14" y="-942.2" font-family="Times New Roman,serif" font-size="14.00">Conflict</text>
</g>
</g>
</svg>
