<?xml version="1.0" encoding="UTF-8" standalone="no"?>
<!DOCTYPE svg PUBLIC "-//W3C//DTD SVG 1.1//EN"
 "http://www.w3.org/Graphics/SVG/1.1/DTD/svg11.dtd">
<!-- Generated by graphviz version 12.2.0 (20241103.1931)
 -->
<!-- Title: DependenceGraph Pages: 1 -->
<svg width="1944pt" height="1018pt"
 viewBox="0.00 0.00 1944.32 1017.50" xmlns="http://www.w3.org/2000/svg" xmlns:xlink="http://www.w3.org/1999/xlink">
<g id="graph0" class="graph" transform="scale(1 1) rotate(0) translate(4 1013.5)">
<title>DependenceGraph</title>
<polygon fill="white" stroke="none" points="-4,4 -4,-1013.5 1940.32,-1013.5 1940.32,4 -4,4"/>
<!-- 1 -->
<g id="node1" class="node">
<title>1</title>
<ellipse fill="none" stroke="black" cx="1049.15" cy="-18" rx="119.93" ry="18"/>
<text text-anchor="middle" x="1049.15" y="-12.95" font-family="Times New Roman,serif" font-size="14.00">1: loadI 4 =&gt; r3, priority 240</text>
</g>
<!-- 2 -->
<g id="node2" class="node">
<title>2</title>
<ellipse fill="none" stroke="black" cx="475.15" cy="-18" rx="138.36" ry="18"/>
<text text-anchor="middle" x="475.15" y="-12.95" font-family="Times New Roman,serif" font-size="14.00">2: loadI 2000 =&gt; r20, priority 240</text>
</g>
<!-- 3 -->
<g id="node3" class="node">
<title>3</title>
<ellipse fill="none" stroke="black" cx="605.15" cy="-106.5" rx="139.38" ry="18"/>
<text text-anchor="middle" x="605.15" y="-101.45" font-family="Times New Roman,serif" font-size="14.00">3: add r20, r3 =&gt; r17, priority 232</text>
</g>
<!-- 3&#45;&gt;1 -->
<g id="edge2" class="edge">
<title>3&#45;&gt;1</title>
<path fill="none" stroke="black" d="M645.21,-88.87C674.54,-77.35 715.57,-62.6 752.9,-54 810.26,-40.78 875.09,-32.4 929.44,-27.17"/>
<polygon fill="black" stroke="black" points="929.74,-30.66 939.37,-26.24 929.08,-23.69 929.74,-30.66"/>
<text text-anchor="middle" x="775.02" y="-57.2" font-family="Times New Roman,serif" font-size="14.00">Data, r3</text>
</g>
<!-- 3&#45;&gt;2 -->
<g id="edge1" class="edge">
<title>3&#45;&gt;2</title>
<path fill="none" stroke="black" d="M579.46,-88.41C559.7,-75.26 532.17,-56.94 510.35,-42.42"/>
<polygon fill="black" stroke="black" points="512.3,-39.52 502.04,-36.89 508.42,-45.35 512.3,-39.52"/>
<text text-anchor="middle" x="577.29" y="-57.2" font-family="Times New Roman,serif" font-size="14.00">Data, r20</text>
</g>
<!-- 4 -->
<g id="node4" class="node">
<title>4</title>
<ellipse fill="none" stroke="black" cx="129.15" cy="-549" rx="129.15" ry="18"/>
<text text-anchor="middle" x="129.15" y="-543.95" font-family="Times New Roman,serif" font-size="14.00">4: load r20 =&gt; r18, priority 161</text>
</g>
<!-- 4&#45;&gt;2 -->
<g id="edge3" class="edge">
<title>4&#45;&gt;2</title>
<path fill="none" stroke="black" d="M190.51,-532.8C224.98,-520.19 261.15,-498.21 261.15,-461.5 261.15,-461.5 261.15,-461.5 261.15,-105.5 261.15,-62.74 298.33,-40.6 341.69,-29.31"/>
<polygon fill="black" stroke="black" points="342.44,-32.74 351.36,-27.02 340.82,-25.92 342.44,-32.74"/>
<text text-anchor="middle" x="286.65" y="-278.45" font-family="Times New Roman,serif" font-size="14.00">Data, r20</text>
</g>
<!-- 5 -->
<g id="node5" class="node">
<title>5</title>
<ellipse fill="none" stroke="black" cx="405.15" cy="-549" rx="129.15" ry="18"/>
<text text-anchor="middle" x="405.15" y="-543.95" font-family="Times New Roman,serif" font-size="14.00">5: load r17 =&gt; r19, priority 163</text>
</g>
<!-- 5&#45;&gt;3 -->
<g id="edge4" class="edge">
<title>5&#45;&gt;3</title>
<path fill="none" stroke="black" d="M482.15,-534.19C520.65,-522.38 559.15,-500.75 559.15,-461.5 559.15,-461.5 559.15,-461.5 559.15,-194 559.15,-171.82 571.08,-149.79 582.79,-133.51"/>
<polygon fill="black" stroke="black" points="585.37,-135.91 588.65,-125.84 579.8,-131.67 585.37,-135.91"/>
<text text-anchor="middle" x="584.65" y="-322.7" font-family="Times New Roman,serif" font-size="14.00">Data, r17</text>
</g>
<!-- 6 -->
<g id="node6" class="node">
<title>6</title>
<ellipse fill="none" stroke="black" cx="400.15" cy="-637.5" rx="139.38" ry="18"/>
<text text-anchor="middle" x="400.15" y="-632.45" font-family="Times New Roman,serif" font-size="14.00">6: add r18, r19 =&gt; r7, priority 105</text>
</g>
<!-- 6&#45;&gt;4 -->
<g id="edge5" class="edge">
<title>6&#45;&gt;4</title>
<path fill="none" stroke="black" d="M349.49,-620.33C304.29,-605.91 238.03,-584.75 189.97,-569.42"/>
<polygon fill="black" stroke="black" points="191.13,-566.11 180.54,-566.4 189,-572.78 191.13,-566.11"/>
<text text-anchor="middle" x="314.42" y="-588.2" font-family="Times New Roman,serif" font-size="14.00">Data, r18</text>
</g>
<!-- 6&#45;&gt;5 -->
<g id="edge6" class="edge">
<title>6&#45;&gt;5</title>
<path fill="none" stroke="black" d="M401.13,-619.41C401.81,-607.76 402.72,-592.05 403.5,-578.52"/>
<polygon fill="black" stroke="black" points="406.97,-579.05 404.06,-568.86 399.98,-578.64 406.97,-579.05"/>
<text text-anchor="middle" x="428.59" y="-588.2" font-family="Times New Roman,serif" font-size="14.00">Data, r19</text>
</g>
<!-- 7 -->
<g id="node7" class="node">
<title>7</title>
<ellipse fill="none" stroke="black" cx="762.15" cy="-195" rx="139.38" ry="18"/>
<text text-anchor="middle" x="762.15" y="-189.95" font-family="Times New Roman,serif" font-size="14.00">7: add r17, r3 =&gt; r16, priority 223</text>
</g>
<!-- 7&#45;&gt;1 -->
<g id="edge8" class="edge">
<title>7&#45;&gt;1</title>
<path fill="none" stroke="black" d="M785.74,-176.92C824.32,-149.35 903.76,-94.08 975.15,-54 983.52,-49.3 992.63,-44.64 1001.5,-40.33"/>
<polygon fill="black" stroke="black" points="1002.85,-43.56 1010.38,-36.1 999.84,-37.24 1002.85,-43.56"/>
<text text-anchor="middle" x="937.19" y="-101.45" font-family="Times New Roman,serif" font-size="14.00">Data, r3</text>
</g>
<!-- 7&#45;&gt;3 -->
<g id="edge7" class="edge">
<title>7&#45;&gt;3</title>
<path fill="none" stroke="black" d="M731.5,-177.12C707.05,-163.65 672.58,-144.66 645.82,-129.91"/>
<polygon fill="black" stroke="black" points="647.75,-126.98 637.31,-125.22 644.38,-133.11 647.75,-126.98"/>
<text text-anchor="middle" x="723.21" y="-145.7" font-family="Times New Roman,serif" font-size="14.00">Data, r17</text>
</g>
<!-- 8 -->
<g id="node8" class="node">
<title>8</title>
<ellipse fill="none" stroke="black" cx="1156.15" cy="-283.5" rx="139.38" ry="18"/>
<text text-anchor="middle" x="1156.15" y="-278.45" font-family="Times New Roman,serif" font-size="14.00">8: add r16, r3 =&gt; r15, priority 214</text>
</g>
<!-- 8&#45;&gt;1 -->
<g id="edge10" class="edge">
<title>8&#45;&gt;1</title>
<path fill="none" stroke="black" d="M1149.13,-265.21C1131.03,-220.64 1082.65,-101.5 1060.5,-46.96"/>
<polygon fill="black" stroke="black" points="1063.77,-45.7 1056.76,-37.75 1057.28,-48.34 1063.77,-45.7"/>
<text text-anchor="middle" x="1127.24" y="-145.7" font-family="Times New Roman,serif" font-size="14.00">Data, r3</text>
</g>
<!-- 8&#45;&gt;7 -->
<g id="edge9" class="edge">
<title>8&#45;&gt;7</title>
<path fill="none" stroke="black" d="M1087.52,-267.43C1018.94,-252.38 913.61,-229.25 841.48,-213.42"/>
<polygon fill="black" stroke="black" points="842.65,-210.09 832.13,-211.36 841.14,-216.93 842.65,-210.09"/>
<text text-anchor="middle" x="1019.94" y="-234.2" font-family="Times New Roman,serif" font-size="14.00">Data, r16</text>
</g>
<!-- 9 -->
<g id="node9" class="node">
<title>9</title>
<ellipse fill="none" stroke="black" cx="681.15" cy="-549" rx="129.15" ry="18"/>
<text text-anchor="middle" x="681.15" y="-543.95" font-family="Times New Roman,serif" font-size="14.00">9: load r16 =&gt; r11, priority 184</text>
</g>
<!-- 9&#45;&gt;7 -->
<g id="edge11" class="edge">
<title>9&#45;&gt;7</title>
<path fill="none" stroke="black" d="M702.47,-530.84C719.71,-514.9 741.15,-489.46 741.15,-461.5 741.15,-461.5 741.15,-461.5 741.15,-282.5 741.15,-262.54 746.49,-240.69 751.79,-223.95"/>
<polygon fill="black" stroke="black" points="755.03,-225.29 754.9,-214.7 748.4,-223.06 755.03,-225.29"/>
<text text-anchor="middle" x="766.65" y="-366.95" font-family="Times New Roman,serif" font-size="14.00">Data, r16</text>
</g>
<!-- 10 -->
<g id="node10" class="node">
<title>10</title>
<ellipse fill="none" stroke="black" cx="1524.15" cy="-549" rx="133.75" ry="18"/>
<text text-anchor="middle" x="1524.15" y="-543.95" font-family="Times New Roman,serif" font-size="14.00">10: load r15 =&gt; r10, priority 185</text>
</g>
<!-- 10&#45;&gt;8 -->
<g id="edge12" class="edge">
<title>10&#45;&gt;8</title>
<path fill="none" stroke="black" d="M1506.6,-530.93C1469.29,-495.19 1378.41,-411.07 1292.15,-354 1264.42,-335.66 1231.24,-318.62 1204.59,-306"/>
<polygon fill="black" stroke="black" points="1206.27,-302.92 1195.72,-301.85 1203.3,-309.26 1206.27,-302.92"/>
<text text-anchor="middle" x="1409.86" y="-411.2" font-family="Times New Roman,serif" font-size="14.00">Data, r15</text>
</g>
<!-- 11 -->
<g id="node11" class="node">
<title>11</title>
<ellipse fill="none" stroke="black" cx="777.15" cy="-637.5" rx="143.99" ry="18"/>
<text text-anchor="middle" x="777.15" y="-632.45" font-family="Times New Roman,serif" font-size="14.00">11: add r11, r10 =&gt; r6, priority 107</text>
</g>
<!-- 11&#45;&gt;9 -->
<g id="edge13" class="edge">
<title>11&#45;&gt;9</title>
<path fill="none" stroke="black" d="M758.18,-619.41C743.98,-606.62 724.35,-588.93 708.46,-574.61"/>
<polygon fill="black" stroke="black" points="710.97,-572.16 701.2,-568.07 706.28,-577.36 710.97,-572.16"/>
<text text-anchor="middle" x="763.24" y="-588.2" font-family="Times New Roman,serif" font-size="14.00">Data, r11</text>
</g>
<!-- 11&#45;&gt;10 -->
<g id="edge14" class="edge">
<title>11&#45;&gt;10</title>
<path fill="none" stroke="black" d="M881.65,-624.73C897.88,-622.94 914.46,-621.15 930.15,-619.5 1010.54,-611.04 1035.81,-630.83 1111.15,-601.5 1122.54,-597.07 1121.7,-589.28 1133.15,-585 1184.9,-565.64 1326.14,-572.26 1381.15,-567 1392.96,-565.87 1405.31,-564.57 1417.59,-563.21"/>
<polygon fill="black" stroke="black" points="1417.78,-566.71 1427.33,-562.12 1417,-559.76 1417.78,-566.71"/>
<text text-anchor="middle" x="1158.65" y="-588.2" font-family="Times New Roman,serif" font-size="14.00">Data, r10</text>
</g>
<!-- 12 -->
<g id="node12" class="node">
<title>12</title>
<ellipse fill="none" stroke="black" cx="1139.15" cy="-372" rx="143.99" ry="18"/>
<text text-anchor="middle" x="1139.15" y="-366.95" font-family="Times New Roman,serif" font-size="14.00">12: add r15, r3 =&gt; r14, priority 205</text>
</g>
<!-- 12&#45;&gt;1 -->
<g id="edge16" class="edge">
<title>12&#45;&gt;1</title>
<path fill="none" stroke="black" d="M1063.27,-356.33C1026.06,-344.26 989.15,-322.68 989.15,-284.5 989.15,-284.5 989.15,-284.5 989.15,-105.5 989.15,-81.69 1004.69,-59.71 1019.95,-43.86"/>
<polygon fill="black" stroke="black" points="1022.04,-46.71 1026.74,-37.22 1017.15,-41.71 1022.04,-46.71"/>
<text text-anchor="middle" x="1011.27" y="-189.95" font-family="Times New Roman,serif" font-size="14.00">Data, r3</text>
</g>
<!-- 12&#45;&gt;8 -->
<g id="edge15" class="edge">
<title>12&#45;&gt;8</title>
<path fill="none" stroke="black" d="M1142.5,-353.91C1144.8,-342.26 1147.88,-326.55 1150.54,-313.02"/>
<polygon fill="black" stroke="black" points="1153.95,-313.82 1152.44,-303.34 1147.08,-312.47 1153.95,-313.82"/>
<text text-anchor="middle" x="1174.67" y="-322.7" font-family="Times New Roman,serif" font-size="14.00">Data, r15</text>
</g>
<!-- 13 -->
<g id="node13" class="node">
<title>13</title>
<ellipse fill="none" stroke="black" cx="1209.15" cy="-460.5" rx="139.38" ry="18"/>
<text text-anchor="middle" x="1209.15" y="-455.45" font-family="Times New Roman,serif" font-size="14.00">13: add r14, r3 =&gt; r2, priority 196</text>
</g>
<!-- 13&#45;&gt;1 -->
<g id="edge18" class="edge">
<title>13&#45;&gt;1</title>
<path fill="none" stroke="black" d="M1269.11,-443.91C1302.8,-431.14 1338.15,-409.13 1338.15,-373 1338.15,-373 1338.15,-373 1338.15,-105.5 1338.15,-66.07 1238.16,-43.1 1155.81,-30.86"/>
<polygon fill="black" stroke="black" points="1156.47,-27.42 1146.07,-29.46 1155.47,-34.35 1156.47,-27.42"/>
<text text-anchor="middle" x="1360.27" y="-234.2" font-family="Times New Roman,serif" font-size="14.00">Data, r3</text>
</g>
<!-- 13&#45;&gt;12 -->
<g id="edge17" class="edge">
<title>13&#45;&gt;12</title>
<path fill="none" stroke="black" d="M1195.32,-442.41C1185.32,-430.05 1171.62,-413.13 1160.26,-399.08"/>
<polygon fill="black" stroke="black" points="1163.15,-397.1 1154.14,-391.53 1157.71,-401.5 1163.15,-397.1"/>
<text text-anchor="middle" x="1205.92" y="-411.2" font-family="Times New Roman,serif" font-size="14.00">Data, r14</text>
</g>
<!-- 14 -->
<g id="node14" class="node">
<title>14</title>
<ellipse fill="none" stroke="black" cx="962.15" cy="-549" rx="133.75" ry="18"/>
<text text-anchor="middle" x="962.15" y="-543.95" font-family="Times New Roman,serif" font-size="14.00">14: load r14 =&gt; r12, priority 186</text>
</g>
<!-- 14&#45;&gt;12 -->
<g id="edge19" class="edge">
<title>14&#45;&gt;12</title>
<path fill="none" stroke="black" d="M966.3,-530.72C972.5,-508.08 986.1,-468.22 1010.15,-442.5 1029.91,-421.36 1057.58,-405.29 1082.23,-393.95"/>
<polygon fill="black" stroke="black" points="1083.45,-397.23 1091.19,-389.99 1080.63,-390.83 1083.45,-397.23"/>
<text text-anchor="middle" x="1035.65" y="-455.45" font-family="Times New Roman,serif" font-size="14.00">Data, r14</text>
</g>
<!-- 15 -->
<g id="node15" class="node">
<title>15</title>
<ellipse fill="none" stroke="black" cx="1243.15" cy="-549" rx="129.15" ry="18"/>
<text text-anchor="middle" x="1243.15" y="-543.95" font-family="Times New Roman,serif" font-size="14.00">15: load r2 =&gt; r13, priority 187</text>
</g>
<!-- 15&#45;&gt;13 -->
<g id="edge20" class="edge">
<title>15&#45;&gt;13</title>
<path fill="none" stroke="black" d="M1236.43,-530.91C1231.76,-519.02 1225.42,-502.91 1220.03,-489.2"/>
<polygon fill="black" stroke="black" points="1223.44,-488.29 1216.52,-480.26 1216.92,-490.85 1223.44,-488.29"/>
<text text-anchor="middle" x="1251.32" y="-499.7" font-family="Times New Roman,serif" font-size="14.00">Data, r2</text>
</g>
<!-- 16 -->
<g id="node16" class="node">
<title>16</title>
<ellipse fill="none" stroke="black" cx="1087.15" cy="-637.5" rx="148.08" ry="18"/>
<text text-anchor="middle" x="1087.15" y="-632.45" font-family="Times New Roman,serif" font-size="14.00">16: mult r12, r13 =&gt; r8, priority 129</text>
</g>
<!-- 16&#45;&gt;14 -->
<g id="edge21" class="edge">
<title>16&#45;&gt;14</title>
<path fill="none" stroke="black" d="M1000.84,-622.46C989.62,-617.42 979.24,-610.63 971.15,-601.5 965.58,-595.22 962.86,-586.76 961.66,-578.52"/>
<polygon fill="black" stroke="black" points="965.16,-578.48 960.94,-568.76 958.18,-578.99 965.16,-578.48"/>
<text text-anchor="middle" x="996.65" y="-588.2" font-family="Times New Roman,serif" font-size="14.00">Data, r12</text>
</g>
<!-- 16&#45;&gt;15 -->
<g id="edge22" class="edge">
<title>16&#45;&gt;15</title>
<path fill="none" stroke="black" d="M1146.43,-620.59C1160.62,-615.55 1175.36,-609.22 1188.15,-601.5 1199.81,-594.46 1211.08,-584.63 1220.35,-575.44"/>
<polygon fill="black" stroke="black" points="1222.76,-577.98 1227.21,-568.37 1217.74,-573.11 1222.76,-577.98"/>
<text text-anchor="middle" x="1235.11" y="-588.2" font-family="Times New Roman,serif" font-size="14.00">Data, r13</text>
</g>
<!-- 17 -->
<g id="node17" class="node">
<title>17</title>
<ellipse fill="none" stroke="black" cx="1401.15" cy="-637.5" rx="148.08" ry="18"/>
<text text-anchor="middle" x="1401.15" y="-632.45" font-family="Times New Roman,serif" font-size="14.00">17: mult r10, r11 =&gt; r9, priority 127</text>
</g>
<!-- 17&#45;&gt;9 -->
<g id="edge24" class="edge">
<title>17&#45;&gt;9</title>
<path fill="none" stroke="black" d="M1293.91,-624.74C1277.25,-622.95 1260.24,-621.16 1244.15,-619.5 1162.41,-611.08 1139.69,-622.11 1060.15,-601.5 1042.32,-596.88 1039.99,-589.54 1022.15,-585 934.36,-562.68 909.22,-576.54 819.15,-567 808.16,-565.84 796.7,-564.55 785.28,-563.21"/>
<polygon fill="black" stroke="black" points="785.73,-559.74 775.39,-562.04 784.91,-566.69 785.73,-559.74"/>
<text text-anchor="middle" x="1085.65" y="-588.2" font-family="Times New Roman,serif" font-size="14.00">Data, r11</text>
</g>
<!-- 17&#45;&gt;10 -->
<g id="edge23" class="edge">
<title>17&#45;&gt;10</title>
<path fill="none" stroke="black" d="M1425.45,-619.41C1444.06,-606.32 1469.96,-588.11 1490.56,-573.62"/>
<polygon fill="black" stroke="black" points="1492.49,-576.54 1498.66,-567.92 1488.46,-570.81 1492.49,-576.54"/>
<text text-anchor="middle" x="1499.16" y="-588.2" font-family="Times New Roman,serif" font-size="14.00">Data, r10</text>
</g>
<!-- 18 -->
<g id="node18" class="node">
<title>18</title>
<ellipse fill="none" stroke="black" cx="1114.15" cy="-726" rx="134.78" ry="18"/>
<text text-anchor="middle" x="1114.15" y="-720.95" font-family="Times New Roman,serif" font-size="14.00">18: add r8, r9 =&gt; r4, priority 103</text>
</g>
<!-- 18&#45;&gt;16 -->
<g id="edge25" class="edge">
<title>18&#45;&gt;16</title>
<path fill="none" stroke="black" d="M1108.81,-707.91C1105.14,-696.14 1100.17,-680.23 1095.92,-666.61"/>
<polygon fill="black" stroke="black" points="1099.33,-665.8 1093.01,-657.29 1092.65,-667.88 1099.33,-665.8"/>
<text text-anchor="middle" x="1125.19" y="-676.7" font-family="Times New Roman,serif" font-size="14.00">Data, r8</text>
</g>
<!-- 18&#45;&gt;17 -->
<g id="edge26" class="edge">
<title>18&#45;&gt;17</title>
<path fill="none" stroke="black" d="M1167.12,-709.03C1214.95,-694.62 1285.47,-673.36 1336.59,-657.96"/>
<polygon fill="black" stroke="black" points="1337.49,-661.34 1346.06,-655.1 1335.47,-654.64 1337.49,-661.34"/>
<text text-anchor="middle" x="1305.48" y="-676.7" font-family="Times New Roman,serif" font-size="14.00">Data, r9</text>
</g>
<!-- 19 -->
<g id="node19" class="node">
<title>19</title>
<ellipse fill="none" stroke="black" cx="826.15" cy="-726" rx="134.78" ry="18"/>
<text text-anchor="middle" x="826.15" y="-720.95" font-family="Times New Roman,serif" font-size="14.00">19: add r6, r7 =&gt; r5, priority 101</text>
</g>
<!-- 19&#45;&gt;6 -->
<g id="edge28" class="edge">
<title>19&#45;&gt;6</title>
<path fill="none" stroke="black" d="M754.36,-710.42C679.63,-695.25 562.68,-671.5 483.81,-655.49"/>
<polygon fill="black" stroke="black" points="484.92,-652.14 474.42,-653.58 483.52,-659 484.92,-652.14"/>
<text text-anchor="middle" x="673.43" y="-676.7" font-family="Times New Roman,serif" font-size="14.00">Data, r7</text>
</g>
<!-- 19&#45;&gt;11 -->
<g id="edge27" class="edge">
<title>19&#45;&gt;11</title>
<path fill="none" stroke="black" d="M816.47,-707.91C809.66,-695.9 800.42,-679.59 792.61,-665.8"/>
<polygon fill="black" stroke="black" points="795.69,-664.14 787.72,-657.17 789.6,-667.59 795.69,-664.14"/>
<text text-anchor="middle" x="828.16" y="-676.7" font-family="Times New Roman,serif" font-size="14.00">Data, r6</text>
</g>
<!-- 20 -->
<g id="node20" class="node">
<title>20</title>
<ellipse fill="none" stroke="black" cx="826.15" cy="-814.5" rx="130.17" ry="18"/>
<text text-anchor="middle" x="826.15" y="-809.45" font-family="Times New Roman,serif" font-size="14.00">20: add r4, r5 =&gt; r0, priority 99</text>
</g>
<!-- 20&#45;&gt;18 -->
<g id="edge29" class="edge">
<title>20&#45;&gt;18</title>
<path fill="none" stroke="black" d="M878.97,-797.63C927.23,-783.14 998.7,-761.67 1050.18,-746.21"/>
<polygon fill="black" stroke="black" points="1051.15,-749.58 1059.72,-743.35 1049.14,-742.87 1051.15,-749.58"/>
<text text-anchor="middle" x="1018.07" y="-765.2" font-family="Times New Roman,serif" font-size="14.00">Data, r4</text>
</g>
<!-- 20&#45;&gt;19 -->
<g id="edge30" class="edge">
<title>20&#45;&gt;19</title>
<path fill="none" stroke="black" d="M826.15,-796.41C826.15,-784.76 826.15,-769.05 826.15,-755.52"/>
<polygon fill="black" stroke="black" points="829.65,-755.86 826.15,-745.86 822.65,-755.86 829.65,-755.86"/>
<text text-anchor="middle" x="848.27" y="-765.2" font-family="Times New Roman,serif" font-size="14.00">Data, r5</text>
</g>
<!-- 21 -->
<g id="node21" class="node">
<title>21</title>
<ellipse fill="none" stroke="black" cx="1806.15" cy="-549" rx="130.17" ry="18"/>
<text text-anchor="middle" x="1806.15" y="-543.95" font-family="Times New Roman,serif" font-size="14.00">21: add r2, r3 =&gt; r1, priority 87</text>
</g>
<!-- 21&#45;&gt;1 -->
<g id="edge32" class="edge">
<title>21&#45;&gt;1</title>
<path fill="none" stroke="black" d="M1722.26,-534.83C1682.32,-523.28 1643.15,-501.71 1643.15,-461.5 1643.15,-461.5 1643.15,-461.5 1643.15,-105.5 1643.15,-58.46 1347.73,-34.75 1173.56,-24.86"/>
<polygon fill="black" stroke="black" points="1173.96,-21.37 1163.78,-24.31 1173.57,-28.36 1173.96,-21.37"/>
<text text-anchor="middle" x="1665.27" y="-278.45" font-family="Times New Roman,serif" font-size="14.00">Data, r3</text>
</g>
<!-- 21&#45;&gt;13 -->
<g id="edge31" class="edge">
<title>21&#45;&gt;13</title>
<path fill="none" stroke="black" d="M1718.7,-535.33C1610.09,-519.59 1425.17,-492.8 1310.49,-476.18"/>
<polygon fill="black" stroke="black" points="1311.17,-472.75 1300.77,-474.78 1310.17,-479.67 1311.17,-472.75"/>
<text text-anchor="middle" x="1583.24" y="-499.7" font-family="Times New Roman,serif" font-size="14.00">Data, r2</text>
</g>
<!-- 22 -->
<g id="node22" class="node">
<title>22</title>
<ellipse fill="none" stroke="black" cx="668.15" cy="-903" rx="121.98" ry="18"/>
<text text-anchor="middle" x="668.15" y="-897.95" font-family="Times New Roman,serif" font-size="14.00">22: store r0 =&gt; r1, priority 91</text>
</g>
<!-- 22&#45;&gt;4 -->
<g id="edge35" class="edge">
<title>22&#45;&gt;4</title>
<path fill="none" stroke="black" d="M546.39,-901.71C462.59,-899.11 349.29,-890.8 252.15,-867 194.58,-852.9 129.15,-874.77 129.15,-815.5 129.15,-815.5 129.15,-815.5 129.15,-636.5 129.15,-617.17 129.15,-595.4 129.15,-578.54"/>
<polygon fill="black" stroke="black" points="132.65,-578.75 129.15,-568.75 125.65,-578.75 132.65,-578.75"/>
<text text-anchor="middle" x="163.27" y="-720.95" font-family="Times New Roman,serif" font-size="14.00">Serialization</text>
</g>
<!-- 22&#45;&gt;5 -->
<g id="edge36" class="edge">
<title>22&#45;&gt;5</title>
<path fill="none" stroke="black" d="M546.4,-901.2C417.71,-896.96 233.15,-879.7 233.15,-815.5 233.15,-815.5 233.15,-815.5 233.15,-636.5 233.15,-598.62 266.86,-577.32 304.44,-565.35"/>
<polygon fill="black" stroke="black" points="305.05,-568.82 313.66,-562.64 303.08,-562.1 305.05,-568.82"/>
<text text-anchor="middle" x="267.27" y="-720.95" font-family="Times New Roman,serif" font-size="14.00">Serialization</text>
</g>
<!-- 22&#45;&gt;9 -->
<g id="edge37" class="edge">
<title>22&#45;&gt;9</title>
<path fill="none" stroke="black" d="M621.11,-885.93C610.53,-880.93 599.86,-874.66 591.15,-867 532.29,-815.25 493.07,-783.27 514.9,-708 522.59,-681.47 533.57,-678.96 548.15,-655.5 567.52,-624.33 563,-608.56 591.15,-585 598.09,-579.19 606.11,-574.27 614.45,-570.12"/>
<polygon fill="black" stroke="black" points="615.69,-573.4 623.35,-566.07 612.79,-567.03 615.69,-573.4"/>
<text text-anchor="middle" x="549.02" y="-720.95" font-family="Times New Roman,serif" font-size="14.00">Serialization</text>
</g>
<!-- 22&#45;&gt;10 -->
<g id="edge38" class="edge">
<title>22&#45;&gt;10</title>
<path fill="none" stroke="black" d="M789.28,-900.7C988.15,-897.94 1375.25,-889.74 1510.15,-867 1588.41,-853.8 1681.15,-894.87 1681.15,-815.5 1681.15,-815.5 1681.15,-815.5 1681.15,-636.5 1681.15,-600.82 1649.66,-579.75 1614.89,-567.36"/>
<polygon fill="black" stroke="black" points="1616.06,-564.06 1605.46,-564.26 1613.87,-570.71 1616.06,-564.06"/>
<text text-anchor="middle" x="1715.27" y="-720.95" font-family="Times New Roman,serif" font-size="14.00">Serialization</text>
</g>
<!-- 22&#45;&gt;14 -->
<g id="edge39" class="edge">
<title>22&#45;&gt;14</title>
<path fill="none" stroke="black" d="M645.76,-885.06C627.65,-869.27 605.15,-843.92 605.15,-815.5 605.15,-815.5 605.15,-815.5 605.15,-636.5 605.15,-603.63 626.37,-607.93 716.15,-585 741.95,-578.41 800.08,-570.04 853.36,-563.13"/>
<polygon fill="black" stroke="black" points="853.67,-566.62 863.14,-561.87 852.78,-559.68 853.67,-566.62"/>
<text text-anchor="middle" x="639.27" y="-720.95" font-family="Times New Roman,serif" font-size="14.00">Serialization</text>
</g>
<!-- 22&#45;&gt;15 -->
<g id="edge40" class="edge">
<title>22&#45;&gt;15</title>
<path fill="none" stroke="black" d="M790.27,-902.78C1038.17,-902.72 1577.15,-893.62 1577.15,-815.5 1577.15,-815.5 1577.15,-815.5 1577.15,-636.5 1577.15,-611.55 1435.73,-582.45 1336.93,-565.16"/>
<polygon fill="black" stroke="black" points="1337.65,-561.73 1327.2,-563.47 1336.45,-568.63 1337.65,-561.73"/>
<text text-anchor="middle" x="1611.27" y="-720.95" font-family="Times New Roman,serif" font-size="14.00">Serialization</text>
</g>
<!-- 22&#45;&gt;20 -->
<g id="edge33" class="edge">
<title>22&#45;&gt;20</title>
<path fill="none" stroke="black" d="M698.99,-885.12C723.67,-871.6 758.5,-852.53 785.47,-837.77"/>
<polygon fill="black" stroke="black" points="786.97,-840.94 794.06,-833.07 783.61,-834.8 786.97,-840.94"/>
<text text-anchor="middle" x="783.42" y="-853.7" font-family="Times New Roman,serif" font-size="14.00">Data, r0</text>
</g>
<!-- 22&#45;&gt;21 -->
<g id="edge34" class="edge">
<title>22&#45;&gt;21</title>
<path fill="none" stroke="black" d="M789.55,-900.84C1005.94,-898.21 1449.95,-890.11 1603.15,-867 1690.51,-853.82 1795.15,-903.85 1795.15,-815.5 1795.15,-815.5 1795.15,-815.5 1795.15,-636.5 1795.15,-617.13 1797.89,-595.52 1800.64,-578.74"/>
<polygon fill="black" stroke="black" points="1804.08,-579.42 1802.35,-568.97 1797.18,-578.22 1804.08,-579.42"/>
<text text-anchor="middle" x="1817.27" y="-720.95" font-family="Times New Roman,serif" font-size="14.00">Data, r1</text>
</g>
<!-- 23 -->
<g id="node23" class="node">
<title>23</title>
<ellipse fill="none" stroke="black" cx="668.15" cy="-991.5" rx="114.3" ry="18"/>
<text text-anchor="middle" x="668.15" y="-986.45" font-family="Times New Roman,serif" font-size="14.00">23: output 2024, priority 32</text>
</g>
<!-- 23&#45;&gt;22 -->
<g id="edge41" class="edge">
<title>23&#45;&gt;22</title>
<path fill="none" stroke="black" d="M668.15,-973.41C668.15,-961.76 668.15,-946.05 668.15,-932.52"/>
<polygon fill="black" stroke="black" points="671.65,-932.86 668.15,-922.86 664.65,-932.86 671.65,-932.86"/>
<text text-anchor="middle" x="690.27" y="-942.2" font-family="Times New Roman,serif" font-size="14.00">Conflict</text>
</g>
</g>
</svg>
